<svg xmlns="http://www.w3.org/2000/svg" xmlns:xlink="http://www.w3.org/1999/xlink" width="40" zoomAndPan="magnify" viewBox="0 0 30 44.999999" height="60" preserveAspectRatio="xMidYMid meet" version="1.0"><defs><clipPath id="f3c563a1ba"><path d="M 0 0.949219 L 29.101562 0.949219 L 29.101562 30.050781 L 0 30.050781 Z M 0 0.949219 " clip-rule="nonzero"/></clipPath><clipPath id="0196153080"><path d="M 14.550781 0.949219 C 6.515625 0.949219 0 7.464844 0 15.5 C 0 23.535156 6.515625 30.050781 14.550781 30.050781 C 22.585938 30.050781 29.101562 23.535156 29.101562 15.5 C 29.101562 7.464844 22.585938 0.949219 14.550781 0.949219 Z M 14.550781 0.949219 " clip-rule="nonzero"/></clipPath><clipPath id="fe37b5f8a0"><path d="M 0 0.949219 L 29.101562 0.949219 L 29.101562 30.050781 L 0 30.050781 Z M 0 0.949219 " clip-rule="nonzero"/></clipPath><clipPath id="d5f8fbade9"><path d="M 14.550781 0.949219 C 6.515625 0.949219 0 7.464844 0 15.5 C 0 23.535156 6.515625 30.050781 14.550781 30.050781 C 22.585938 30.050781 29.101562 23.535156 29.101562 15.5 C 29.101562 7.464844 22.585938 0.949219 14.550781 0.949219 Z M 14.550781 0.949219 " clip-rule="nonzero"/></clipPath><clipPath id="a116d84255"><rect x="0" width="30" y="0" height="31"/></clipPath><clipPath id="53910b7c74"><path d="M 5.046875 8.816406 L 19.898438 8.816406 L 19.898438 23.667969 L 5.046875 23.667969 Z M 5.046875 8.816406 " clip-rule="nonzero"/></clipPath><clipPath id="82dd6a9e32"><path d="M 16.449219 6.980469 L 23.875 6.980469 L 23.875 14.40625 L 16.449219 14.40625 Z M 16.449219 6.980469 " clip-rule="nonzero"/></clipPath><clipPath id="154456b850"><rect x="0" width="30" y="0" height="31"/></clipPath></defs><g transform="matrix(1, 0, 0, 1, 0, 7)"><g clip-path="url(#154456b850)"><g clip-path="url(#f3c563a1ba)"><g clip-path="url(#0196153080)"><g transform="matrix(1, 0, 0, 1, 0, 0)"><g clip-path="url(#a116d84255)"><g clip-path="url(#fe37b5f8a0)"><g clip-path="url(#d5f8fbade9)"><path fill="#e3dfd6" d="M 0 0.949219 L 29.101562 0.949219 L 29.101562 30.050781 L 0 30.050781 Z M 0 0.949219 " fill-opacity="1" fill-rule="nonzero"/></g></g></g></g></g></g><g clip-path="url(#53910b7c74)"><path fill="#2e4a82" d="M 12.648438 24.015625 C 12.648438 19.835938 9.230469 16.417969 5.046875 16.417969 C 9.230469 16.417969 12.648438 13 12.648438 8.816406 C 12.648438 13 16.066406 16.417969 20.25 16.417969 C 16.066406 16.417969 12.648438 19.835938 12.648438 24.015625 Z M 12.648438 24.015625 " fill-opacity="1" fill-rule="nonzero"/></g><g clip-path="url(#82dd6a9e32)"><path fill="#2e4a82" d="M 20.25 14.582031 C 20.25 12.488281 18.542969 10.78125 16.449219 10.78125 C 18.542969 10.78125 20.25 9.070312 20.25 6.980469 C 20.25 9.070312 21.960938 10.78125 24.050781 10.78125 C 21.960938 10.78125 20.25 12.488281 20.25 14.582031 Z M 20.25 14.582031 " fill-opacity="1" fill-rule="nonzero"/></g></g></g></svg>