<svg xmlns="http://www.w3.org/2000/svg" xmlns:xlink="http://www.w3.org/1999/xlink" width="40" zoomAndPan="magnify" viewBox="0 0 30 44.999999" height="60" preserveAspectRatio="xMidYMid meet" version="1.0"><defs><clipPath id="5321185222"><path d="M 0 0.855469 L 29.285156 0.855469 L 29.285156 30.144531 L 0 30.144531 Z M 0 0.855469 " clip-rule="nonzero"/></clipPath><clipPath id="79975302eb"><path d="M 14.644531 0.855469 C 6.554688 0.855469 0 7.414062 0 15.5 C 0 23.585938 6.554688 30.144531 14.644531 30.144531 C 22.730469 30.144531 29.285156 23.585938 29.285156 15.5 C 29.285156 7.414062 22.730469 0.855469 14.644531 0.855469 Z M 14.644531 0.855469 " clip-rule="nonzero"/></clipPath><clipPath id="58e95f7011"><path d="M 0 0.855469 L 29.285156 0.855469 L 29.285156 30.144531 L 0 30.144531 Z M 0 0.855469 " clip-rule="nonzero"/></clipPath><clipPath id="216b5ef35c"><path d="M 14.644531 0.855469 C 6.554688 0.855469 0 7.414062 0 15.5 C 0 23.585938 6.554688 30.144531 14.644531 30.144531 C 22.730469 30.144531 29.285156 23.585938 29.285156 15.5 C 29.285156 7.414062 22.730469 0.855469 14.644531 0.855469 Z M 14.644531 0.855469 " clip-rule="nonzero"/></clipPath><clipPath id="71093a74c6"><rect x="0" width="30" y="0" height="31"/></clipPath><clipPath id="069e7a5db6"><path d="M 8.777344 7.703125 L 20.921875 7.703125 L 20.921875 23.585938 L 8.777344 23.585938 Z M 8.777344 7.703125 " clip-rule="nonzero"/></clipPath><clipPath id="e376a4484d"><rect x="0" width="30" y="0" height="31"/></clipPath></defs><g transform="matrix(1, 0, 0, 1, 0, 7)"><g clip-path="url(#e376a4484d)"><g clip-path="url(#5321185222)"><g clip-path="url(#79975302eb)"><g transform="matrix(1, 0, 0, 1, 0, 0)"><g clip-path="url(#71093a74c6)"><g clip-path="url(#58e95f7011)"><g clip-path="url(#216b5ef35c)"><path fill="#e3dfd6" d="M 0 0.855469 L 29.285156 0.855469 L 29.285156 30.144531 L 0 30.144531 Z M 0 0.855469 " fill-opacity="1" fill-rule="nonzero"/></g></g></g></g></g></g><g clip-path="url(#069e7a5db6)"><path fill="#2e4a82" d="M 19.894531 8.75 C 19.269531 7.863281 18.195312 7.578125 17.167969 7.835938 C 16.828125 7.921875 16.496094 8.023438 16.171875 8.132812 C 15.660156 8.3125 15.148438 8.398438 14.636719 8.398438 C 14.128906 8.398438 13.617188 8.3125 13.105469 8.132812 C 12.777344 8.023438 12.441406 7.917969 12.109375 7.835938 C 11.078125 7.578125 10.007812 7.863281 9.378906 8.75 C 8.722656 9.671875 8.628906 10.988281 8.980469 12.046875 C 9.496094 13.585938 10.304688 14.949219 10.207031 16.636719 C 10.101562 18.53125 10.164062 21.128906 11.277344 22.761719 C 11.644531 23.300781 12.367188 23.511719 12.707031 22.804688 C 13.128906 21.898438 13.019531 20.917969 12.910156 19.945312 C 12.796875 18.96875 12.691406 17.984375 13.140625 17.078125 C 13.449219 16.460938 13.949219 16.160156 14.636719 16.160156 C 15.328125 16.160156 15.828125 16.460938 16.132812 17.078125 C 16.582031 17.988281 16.480469 18.96875 16.367188 19.945312 C 16.257812 20.917969 16.148438 21.898438 16.570312 22.804688 C 16.902344 23.511719 17.628906 23.300781 18 22.761719 C 19.113281 21.128906 19.179688 18.53125 19.070312 16.636719 C 18.972656 14.949219 19.785156 13.59375 20.296875 12.046875 C 20.648438 10.988281 20.554688 9.671875 19.894531 8.75 Z M 19.894531 8.75 " fill-opacity="1" fill-rule="nonzero"/></g></g></g></svg>