<svg xmlns="http://www.w3.org/2000/svg" xmlns:xlink="http://www.w3.org/1999/xlink" width="40" zoomAndPan="magnify" viewBox="0 0 30 44.999999" height="60" preserveAspectRatio="xMidYMid meet" version="1.0"><defs><clipPath id="065c64411c"><path d="M 0.46875 0.96875 L 29.53125 0.96875 L 29.53125 30.03125 L 0.46875 30.03125 Z M 0.46875 0.96875 " clip-rule="nonzero"/></clipPath><clipPath id="7920a44740"><path d="M 15 0.96875 C 6.976562 0.96875 0.46875 7.476562 0.46875 15.5 C 0.46875 23.523438 6.976562 30.03125 15 30.03125 C 23.023438 30.03125 29.53125 23.523438 29.53125 15.5 C 29.53125 7.476562 23.023438 0.96875 15 0.96875 Z M 15 0.96875 " clip-rule="nonzero"/></clipPath><clipPath id="f7e2501d0a"><path d="M 0.46875 0.96875 L 29.53125 0.96875 L 29.53125 30.03125 L 0.46875 30.03125 Z M 0.46875 0.96875 " clip-rule="nonzero"/></clipPath><clipPath id="670e559e03"><path d="M 15 0.96875 C 6.976562 0.96875 0.46875 7.476562 0.46875 15.5 C 0.46875 23.523438 6.976562 30.03125 15 30.03125 C 23.023438 30.03125 29.53125 23.523438 29.53125 15.5 C 29.53125 7.476562 23.023438 0.96875 15 0.96875 Z M 15 0.96875 " clip-rule="nonzero"/></clipPath><clipPath id="78a52ec247"><rect x="0" width="30" y="0" height="31"/></clipPath><clipPath id="6388a1e28d"><path d="M 12 7.144531 L 22.78125 7.144531 L 22.78125 22 L 12 22 Z M 12 7.144531 " clip-rule="nonzero"/></clipPath><clipPath id="dd339f2c49"><path d="M 8.875 13 L 19 13 L 19 22.90625 L 8.875 22.90625 Z M 8.875 13 " clip-rule="nonzero"/></clipPath><clipPath id="b83d3bdc65"><rect x="0" width="30" y="0" height="31"/></clipPath></defs><g transform="matrix(1, 0, 0, 1, -0.000000000000000028, 7)"><g clip-path="url(#b83d3bdc65)"><g clip-path="url(#065c64411c)"><g clip-path="url(#7920a44740)"><g transform="matrix(1, 0, 0, 1, -0.000000000000000028, 0)"><g clip-path="url(#78a52ec247)"><g clip-path="url(#f7e2501d0a)"><g clip-path="url(#670e559e03)"><path fill="#e3dfd6" d="M 0.46875 0.96875 L 29.53125 0.96875 L 29.53125 30.03125 L 0.46875 30.03125 Z M 0.46875 0.96875 " fill-opacity="1" fill-rule="nonzero"/></g></g></g></g></g></g><g clip-path="url(#6388a1e28d)"><path fill="#2e4a82" d="M 13.601562 10.007812 C 14.328125 9.941406 14.894531 9.3125 14.894531 8.578125 C 14.894531 7.789062 14.25 7.144531 13.460938 7.144531 C 12.671875 7.144531 12.027344 7.789062 12.027344 8.578125 C 12.027344 8.820312 12.09375 9.066406 12.207031 9.273438 L 12.71875 16.460938 L 17.976562 16.460938 L 20.132812 21.515625 L 22.96875 20.40625 L 22.527344 19.363281 L 20.945312 19.933594 L 18.855469 15.113281 L 13.964844 15.148438 L 13.898438 14.238281 L 17.4375 14.238281 L 17.4375 12.890625 L 13.761719 12.890625 Z M 13.601562 10.007812 " fill-opacity="1" fill-rule="evenodd"/></g><g clip-path="url(#dd339f2c49)"><path fill="#2e4a82" d="M 18.890625 20.3125 C 18.003906 22.070312 16.144531 23.226562 14.164062 23.226562 C 11.25 23.226562 8.875 20.851562 8.875 17.9375 C 8.875 15.894531 10.117188 13.996094 11.964844 13.152344 L 12.082031 14.714844 C 10.992188 15.402344 10.316406 16.648438 10.316406 17.949219 C 10.316406 20.0625 12.039062 21.785156 14.152344 21.785156 C 16.082031 21.785156 17.730469 20.300781 17.957031 18.398438 Z M 18.890625 20.3125 " fill-opacity="1" fill-rule="evenodd"/></g></g></g></svg>